<svg version="1.0" xmlns="http://www.w3.org/2000/svg" width="682.667" height="682.667" viewBox="0 0 512 512"><g fill="#eeffffff"><path d="M212.5 160.8c-7.2 3.5-10.5 8.7-10.5 16.8 0 15.9 19.1 24 30.9 13 6.2-5.8 7.7-13.4 4.2-21.3-3.9-8.6-15.8-12.7-24.6-8.5zM278.2 161.1c-11 5.6-13.5 19.3-5.1 28.4 7.2 7.8 17.6 8.5 25.2 1.6 6.8-6.1 8.5-13.6 4.8-21.8-4.1-8.8-16-12.8-24.9-8.2zM63.8 212.7c-16.7 21.9-30.7 40.3-31 40.9-.6.9 62.2 85.4 63.8 85.7.8.1 17.3-11.5 17.4-12.3 0-.3-11.5-15.6-25.6-34-14.1-18.4-26.3-34.5-27.1-35.8-1.5-2.2-.8-3.3 24.1-36.2 14.1-18.6 25.6-34.4 25.6-34.9 0-.9-15.2-13.1-16.3-13.1-.3 0-14.2 17.9-30.9 39.7zM409 179.1c-4.1 3.2-7.6 6.3-7.8 6.7-.1.5 11.1 15.9 24.9 34.3 13.8 18.4 25.3 33.9 25.6 34.6.3.9-29.6 41.2-50.9 68.5l-2.9 3.7 8.7 6.6c7 5.2 9 6.3 9.9 5.3 1.5-1.6 61.9-81.9 62.8-83.5.7-1.1-59.8-81.4-61.8-81.9-.6-.2-4.4 2.4-8.5 5.7zM250.8 236.2 173 265.3v27.8l3.4 1.4c8.2 3.4 149.3 56.8 151.2 57.2 1.9.4 2.7-.8 6.8-11.4 2.5-6.5 4.6-12.3 4.6-12.8 0-.6-28.1-11.6-62.5-24.5-42.9-16.1-62-23.7-60.8-24.2 1-.4 28.8-10.7 61.7-22.8 32.9-12.1 60.1-22.2 60.3-22.4.6-.6-8-26.6-8.7-26.5-.3 0-35.5 13.1-78.2 29.1z"/></g></svg>